PathFileType  4	(X/Y/Z) E:\AxonAIRepo\axonai_vps\Data\session_74dd741a74\MarkerData\OpenPose_default\PreAugmentation
DataRate	CameraRate	NumFrames	NumMarkers	Units	OrigDataRate	OrigDataStartFrame	OrigNumFrames
60.0	60.0	14	20	m	60.0	200	398
Frame#	Time	Neck			RShoulder			RElbow			RWrist			LShoulder			LElbow			LWrist			midHip			RHip			RKnee			RAnkle			LHip			LKnee			LAnkle			LBigToe			LSmallToe			LHeel			RBigToe			RSmallToe			RHeel			
		X1	Y1	Z1	X2	Y2	Z2	X3	Y3	Z3	X4	Y4	Z4	X5	Y5	Z5	X6	Y6	Z6	X7	Y7	Z7	X8	Y8	Z8	X9	Y9	Z9	X10	Y10	Z10	X11	Y11	Z11	X12	Y12	Z12	X13	Y13	Z13	X14	Y14	Z14	X15	Y15	Z15	X16	Y16	Z16	X17	Y17	Z17	X18	Y18	Z18	X19	Y19	Z19	X20	Y20	Z20	

200	3.3166667	-3.2048900	1.5056900	0.3212300	-3.1604600	1.4773300	0.4858800	-3.3800600	1.1860000	0.5832400	-3.5629800	0.9063200	0.5948800	-3.3059700	1.5247800	0.1466700	-3.4813400	1.2040200	0.0463600	-3.4260000	0.9400900	0.0362400	-3.1332000	0.9707600	0.3058900	-3.4342500	0.9635800	0.4314200	-3.5125800	0.5016700	0.4070400	-3.5024300	0.1253700	0.3885500	-3.3636000	0.9702700	0.1997600	-3.4327200	0.5357300	0.2124100	-3.1037100	0.2033400	0.1425400	-3.2238900	0.1123600	0.1600600	-3.2206000	0.1505800	0.0998200	-3.1390900	0.1799600	0.1465400	-3.5237000	0.0356100	0.3900100	-3.5078200	0.0715700	0.4126100	-3.3822500	0.1292200	0.3524600
201	3.3333333	-3.1993100	1.5052600	0.3216300	-3.1538400	1.4782300	0.4853400	-3.3716400	1.1854900	0.5828800	-3.5665900	0.9069700	0.5950700	-3.3057000	1.5271700	0.1468100	-3.5083600	1.2032700	0.0499500	-3.4649900	0.9384600	0.0416900	-3.1330300	0.9719300	0.3059100	-3.4375700	0.9632400	0.4313600	-3.5160500	0.5052700	0.4069500	-3.4876700	0.1304200	0.3894100	-3.3854700	0.9705500	0.2035000	-3.4755400	0.5337400	0.2182800	-3.1698200	0.1923100	0.1664400	-3.4019600	0.0891000	0.1856800	-3.1867800	0.1565800	0.1160900	-3.1890400	0.1735000	0.1681400	-3.5616200	0.0356300	0.3898500	-3.5546800	0.0545300	0.4120400	-3.3587600	0.1369300	0.3532500
202	3.3500000	-3.2016900	1.5053300	0.3215700	-3.1476500	1.4806500	0.4848400	-3.3768300	1.1887900	0.5838400	-3.5553500	0.9128000	0.5947400	-3.3054700	1.5279500	0.1469600	-3.5169900	1.2049300	0.0509900	-3.4848200	0.9385400	0.0444200	-3.1295900	0.9750300	0.3058800	-3.4319600	0.9638700	0.4315900	-3.5267000	0.5110900	0.4076100	-3.4667900	0.1342500	0.3890400	-3.3899000	0.9730500	0.2045300	-3.5008400	0.5395300	0.2214900	-3.2800900	0.1757900	0.1895100	-3.5043500	0.0671500	0.2021400	-3.1714300	0.1565800	0.1242400	-3.2715900	0.1606100	0.1920800	-3.5997600	0.0356800	0.3861100	-3.5911600	0.0505700	0.4111000	-3.3545800	0.1386800	0.3533800
203	3.3666667	-3.2035900	1.5054800	0.3215200	-3.1456700	1.4845800	0.4848000	-3.3988400	1.1923500	0.5885800	-3.5246100	0.9191900	0.5945400	-3.3058400	1.5271400	0.1471400	-3.5187200	1.2103100	0.0508700	-3.4878500	0.9375800	0.0449200	-3.1249700	0.9793400	0.3058100	-3.4054300	0.9660800	0.4325400	-3.5390000	0.5157400	0.4086900	-3.4272800	0.1433900	0.3853400	-3.3855500	0.9757800	0.2041500	-3.5058200	0.5529800	0.2228800	-3.3693300	0.1622400	0.2058700	-3.5050700	0.0702700	0.2036000	-3.1558700	0.1595500	0.1247100	-3.3402800	0.1531400	0.2129500	-3.6123000	0.0390700	0.3772600	-3.5903800	0.0453900	0.4093900	-3.3676700	0.1379300	0.3546000
204	3.3833333	-3.2035400	1.5056300	0.3215400	-3.1470000	1.4875600	0.4850400	-3.4319100	1.1932700	0.5957900	-3.4870400	0.9206600	0.5949500	-3.3059700	1.5270700	0.1471800	-3.5195900	1.2161000	0.0505300	-3.4851500	0.9374100	0.0445100	-3.1222800	0.9823000	0.3057800	-3.3651400	0.9706700	0.4338300	-3.5455800	0.5189700	0.4089700	-3.3865100	0.1504600	0.3791800	-3.3799700	0.9781600	0.2034800	-3.4846900	0.5633600	0.2240700	-3.3924000	0.1586900	0.2167300	-3.4137400	0.0846700	0.2021200	-3.1237200	0.1594900	0.1232700	-3.3591800	0.1488900	0.2271200	-3.5742500	0.0453800	0.3646200	-3.5721500	0.0479500	0.4036900	-3.3992300	0.1328700	0.3590400
205	3.4000000	-3.2026300	1.5054600	0.3216100	-3.1494100	1.4883300	0.4851600	-3.4568100	1.1944600	0.6010500	-3.4663100	0.9191000	0.5956300	-3.3071000	1.5275000	0.1470400	-3.5190300	1.2213900	0.0501600	-3.4837000	0.9382400	0.0442200	-3.1213700	0.9826400	0.3057300	-3.3355200	0.9758900	0.4345800	-3.5414400	0.5177800	0.4082200	-3.3890200	0.1513000	0.3747200	-3.3750600	0.9801500	0.2029700	-3.4411800	0.5632500	0.2254100	-3.3597900	0.1631800	0.2260400	-3.2747000	0.0996700	0.2093100	-3.0857000	0.1516000	0.1265600	-3.3417500	0.1459500	0.2337100	-3.5132900	0.0539900	0.3553400	-3.5543000	0.0508700	0.3970400	-3.4445800	0.1268300	0.3649400
206	3.4166667	-3.2017400	1.5051600	0.3216800	-3.1509900	1.4879700	0.4851300	-3.4580200	1.1970300	0.6027400	-3.4663600	0.9139500	0.5963700	-3.3097400	1.5260700	0.1469600	-3.5107600	1.2244000	0.0507100	-3.4836600	0.9385200	0.0442500	-3.1187100	0.9833200	0.3053600	-3.3280600	0.9785400	0.4345900	-3.5231400	0.5127600	0.4075300	-3.4320100	0.1425200	0.3763300	-3.3788500	0.9820600	0.2038500	-3.3888900	0.5598100	0.2270700	-3.3153500	0.1685500	0.2329900	-3.1403700	0.1129200	0.2248400	-3.0541100	0.1393100	0.1361000	-3.3283100	0.1378200	0.2346400	-3.4688300	0.0576800	0.3558900	-3.5336800	0.0545700	0.3965300	-3.4738500	0.1164000	0.3689400
207	3.4333333	-3.2011400	1.5048400	0.3217600	-3.1446400	1.4875500	0.4852800	-3.4330900	1.1979700	0.6027600	-3.4723100	0.9089300	0.5967900	-3.3052500	1.5237700	0.1475900	-3.4861000	1.2244600	0.0532000	-3.4845000	0.9399100	0.0443100	-3.1133200	0.9863400	0.3048600	-3.3318300	0.9792100	0.4343300	-3.4896700	0.5107900	0.4079800	-3.4668700	0.1354100	0.3829900	-3.4013400	0.9821400	0.2077500	-3.3335300	0.5588200	0.2316600	-3.2956600	0.1686700	0.2354400	-3.0246800	0.1184400	0.2406800	-3.0073500	0.1277800	0.1472000	-3.3504500	0.1233400	0.2319600	-3.4376800	0.0537200	0.3638300	-3.4715200	0.0595300	0.4047400	-3.4766600	0.1082200	0.3699900
208	3.4500000	-3.2007200	1.5047100	0.3218100	-3.1218800	1.4862700	0.4860200	-3.3957200	1.1986200	0.6025500	-3.4753800	0.9085500	0.5965300	-3.2827900	1.5218100	0.1496700	-3.4525500	1.2236200	0.0567600	-3.4854400	0.9403500	0.0444500	-3.1143800	0.9887000	0.3057700	-3.3275200	0.9798600	0.4345200	-3.4518800	0.5162500	0.4091800	-3.4647700	0.1378100	0.3892500	-3.4353300	0.9808500	0.2135400	-3.2875000	0.5610500	0.2401500	-3.3003900	0.1637100	0.2348700	-2.9322700	0.1094600	0.2514000	-2.9270600	0.1195200	0.1567300	-3.3851200	0.0906200	0.2293000	-3.4116600	0.0651800	0.3710400	-3.3842800	0.0906200	0.4143900	-3.4749900	0.1149400	0.3692300
209	3.4666667	-3.2003400	1.5045500	0.3218600	-3.0898000	1.4844000	0.4871100	-3.3615400	1.1966000	0.6026500	-3.4755900	0.9079500	0.5963000	-3.2498900	1.5199600	0.1525700	-3.4310700	1.2199300	0.0593200	-3.4855600	0.9405000	0.0445400	-3.1341100	0.9875900	0.3097700	-3.3025600	0.9801900	0.4356600	-3.4249900	0.5176900	0.4102500	-3.4450000	0.1412800	0.3919500	-3.4591400	0.9795700	0.2176900	-3.2601400	0.5596500	0.2493400	-3.2931300	0.1586700	0.2352000	-2.8895800	0.1068700	0.2566800	-2.8369000	0.1214200	0.1668100	-3.4064800	0.0735600	0.2276000	-3.3693500	0.0546300	0.3794500	-3.2989900	0.0932300	0.4252600	-3.4679400	0.1171900	0.3691200
210	3.4833333	-3.1997800	1.5045600	0.3218900	-3.0677700	1.4830900	0.4878900	-3.3278000	1.1922400	0.6031700	-3.4693300	0.9078100	0.5966800	-3.2278200	1.5183800	0.1545400	-3.4285100	1.2158600	0.0600200	-3.4832800	0.9407300	0.0443800	-3.1667700	0.9825500	0.3157600	-3.2673600	0.9802500	0.4373000	-3.4193400	0.5189900	0.4106400	-3.4357700	0.1435400	0.3920900	-3.4646900	0.9799900	0.2187700	-3.2384000	0.5580000	0.2556100	-3.2437500	0.1608500	0.2386900	-2.8735000	0.0999100	0.2601400	-2.7710000	0.1231900	0.1808100	-3.3822300	0.0675700	0.2290000	-3.3565500	0.0567100	0.3868400	-3.2838900	0.0973600	0.4331800	-3.4644300	0.1260900	0.3690100
211	3.5000000	-3.1991900	1.5050400	0.3218600	-3.0633200	1.4823100	0.4881800	-3.2933400	1.1877900	0.6038100	-3.4462700	0.9078400	0.5976600	-3.2243600	1.5157000	0.1550900	-3.4331000	1.2130600	0.0598200	-3.4804100	0.9410400	0.0441000	-3.1916800	0.9786300	0.3201600	-3.2462100	0.9783700	0.4384700	-3.4271900	0.5214000	0.4110300	-3.4370600	0.1448700	0.3916500	-3.4617500	0.9806700	0.2184100	-3.2183900	0.5585700	0.2583300	-3.1646700	0.1707000	0.2427700	-2.8660100	0.0973600	0.2618700	-2.7674800	0.1153000	0.1964600	-3.3186800	0.0730100	0.2310900	-3.3650800	0.0582400	0.3918400	-3.3137600	0.0953200	0.4374500	-3.4610500	0.1319200	0.3689700
212	3.5166667	-3.1996900	1.5049200	0.3218700	-3.0685200	1.4802900	0.4883600	-3.2804200	1.1863600	0.6041100	-3.4054900	0.9094200	0.5968000	-3.2295100	1.5125700	0.1549800	-3.4342200	1.2114300	0.0595000	-3.4872800	0.9394300	0.0449800	-3.1980800	0.9781200	0.3211800	-3.2462700	0.9757400	0.4387700	-3.4361400	0.5225500	0.4117100	-3.4374700	0.1437000	0.3914400	-3.4597900	0.9815700	0.2180500	-3.2259500	0.5614200	0.2578900	-3.0946500	0.1836800	0.2424800	-2.8617800	0.0969300	0.2621900	-2.8248900	0.0998100	0.2081400	-3.2309400	0.0848000	0.2304900	-3.3721000	0.0527200	0.3934900	-3.3247200	0.0895200	0.4387600	-3.4576700	0.1317900	0.3688800
213	3.5333333	-3.2021900	1.5025300	0.3220000	-3.0737000	1.4756200	0.4885400	-3.3051100	1.1874200	0.6041500	-3.3546600	0.9070100	0.5913900	-3.2331400	1.5100300	0.1548600	-3.4302300	1.2085000	0.0592400	-3.5157300	0.9356800	0.0483400	-3.1885700	0.9785700	0.3193500	-3.2524400	0.9744300	0.4385900	-3.4400400	0.5243600	0.4119700	-3.4348500	0.1416800	0.3913800	-3.4603700	0.9801000	0.2180300	-3.2641100	0.5625800	0.2554900	-3.0543300	0.1905400	0.2379500	-2.8598500	0.0967900	0.2618500	-2.8732500	0.0906800	0.2111000	-3.1441200	0.0966100	0.2266300	-3.3610300	0.0381300	0.3935400	-3.2728000	0.0831400	0.4390500	-3.4494500	0.1226200	0.3692000
